<?xml version="1.0" standalone="no"?>
<!DOCTYPE svg PUBLIC "-//W3C//DTD SVG 20010904//EN"
 "http://www.w3.org/TR/2001/REC-SVG-20010904/DTD/svg10.dtd">
<svg version="1.0" xmlns="http://www.w3.org/2000/svg"
 width="1024.000000pt" height="1024.000000pt" viewBox="0 0 1024.000000 1024.000000"
 preserveAspectRatio="xMidYMid meet">

<g transform="translate(0.000000,1024.000000) scale(0.100000,-0.100000)"
fill="#000000" stroke="none">
<path d="M6789 5864 c-45 -46 -47 -59 -6 -49 27 7 111 74 103 82 -2 2 -16 6
-29 7 -19 2 -37 -8 -68 -40z"/>
<path d="M5935 5860 l-39 -40 33 0 c25 0 45 10 77 40 l44 40 -38 0 c-31 0 -45
-7 -77 -40z"/>
<path d="M4450 5755 c-205 -66 -217 -349 -18 -435 64 -28 149 -24 221 10 l47
22 0 89 0 89 -30 0 -30 0 0 -74 c0 -73 0 -74 -31 -86 -17 -8 -53 -13 -80 -12
-193 4 -246 257 -71 334 57 25 126 21 171 -11 31 -22 33 -22 52 -6 23 22 13
37 -42 66 -51 26 -133 32 -189 14z"/>
<path d="M4968 5713 c-11 -27 -48 -109 -80 -183 -33 -74 -69 -154 -79 -177
l-18 -43 30 0 c27 0 33 6 54 55 l25 55 124 0 124 0 22 -54 c18 -45 26 -55 52
-60 17 -3 33 -5 35 -3 2 2 -42 104 -97 227 -55 123 -100 225 -100 227 0 2 -16
3 -36 3 -32 0 -37 -4 -56 -47z m107 -133 c25 -58 45 -106 45 -107 0 -2 -43 -3
-95 -3 -52 0 -95 4 -95 8 0 8 76 187 87 205 7 12 8 11 58 -103z"/>
<path d="M5360 5530 l0 -230 155 0 155 0 0 30 0 30 -125 0 -125 0 0 200 0 200
-30 0 -30 0 0 -230z"/>
<path d="M5772 5533 l3 -228 165 0 165 0 0 24 0 24 -135 2 -135 2 0 74 0 74
113 3 c111 3 112 3 112 27 0 24 -1 24 -112 27 l-113 3 0 70 0 70 133 3 132 3
0 24 0 25 -165 0 -165 0 2 -227z"/>
<path d="M6240 5531 l0 -231 30 0 30 0 0 75 0 75 73 0 73 0 50 -72 c42 -63 54
-73 82 -76 17 -2 32 0 32 3 0 4 -24 41 -52 82 -33 47 -48 78 -41 80 28 10 66
49 79 79 19 46 17 88 -5 132 -33 64 -67 76 -218 80 l-133 4 0 -231z m250 161
c76 -38 73 -145 -5 -178 -24 -10 -61 -14 -108 -12 l-72 3 -3 103 -3 102 78 0
c54 0 89 -5 113 -18z"/>
<path d="M6750 5529 l0 -230 28 3 27 3 3 228 2 227 -30 0 -30 0 0 -231z"/>
<path d="M7106 5733 c-52 -104 -186 -415 -181 -423 9 -14 41 -12 52 3 6 6 18
33 29 59 l19 48 123 0 122 0 28 -57 c24 -51 31 -58 60 -61 17 -2 32 -1 32 2 0
3 -35 81 -78 173 -43 92 -89 194 -102 226 -22 53 -26 57 -57 57 -25 0 -36 -6
-47 -27z m95 -150 l46 -108 -49 -3 c-26 -2 -70 -2 -96 0 l-48 3 44 108 c25 59
48 107 51 107 4 0 27 -48 52 -107z"/>
<path d="M3241 5669 c-78 -52 -132 -115 -179 -208 -33 -67 -37 -83 -40 -170
-4 -84 -1 -106 23 -176 45 -134 138 -253 330 -419 192 -167 281 -266 366 -407
l47 -80 8 57 c8 65 0 181 -17 252 -7 26 -36 106 -65 179 -37 89 -54 146 -54
175 0 55 24 147 55 216 24 52 28 113 10 142 -5 9 -4 11 3 6 8 -5 12 1 12 18 0
13 3 32 7 42 5 14 3 16 -11 11 -15 -6 -17 -3 -11 26 4 17 11 37 16 42 8 10 29
86 31 113 1 6 5 12 9 12 4 0 10 8 13 18 4 9 -14 -3 -39 -28 -50 -48 -102 -140
-131 -233 -17 -53 -19 -56 -30 -36 -8 16 -13 18 -17 8 -3 -8 -6 -1 -6 14 -1
16 -5 26 -10 22 -5 -3 -13 0 -17 6 -5 8 -3 9 6 4 8 -5 11 -3 8 6 -3 8 -13 13
-23 11 -12 -3 -16 1 -12 12 5 13 -27 66 -45 74 -5 2 -8 10 -8 18 0 8 -5 14
-11 14 -5 0 -7 -4 -4 -10 3 -5 1 -10 -5 -10 -6 0 -8 10 -4 25 4 15 2 25 -5 25
-6 0 -11 -7 -11 -15 0 -8 -5 -15 -11 -15 -5 0 -7 5 -4 10 3 6 0 10 -7 10 -8 1
-5 7 7 17 19 15 19 15 -6 9 -19 -4 -31 -1 -40 12 -13 15 -12 16 4 3 15 -12 17
-11 17 3 0 9 -6 16 -13 16 -8 0 -20 11 -27 25 -11 21 -16 23 -26 13 -25 -26
-54 -137 -54 -208 0 -79 -14 -91 -30 -28 -29 106 -8 258 50 366 15 28 25 52
20 52 -4 0 -35 -18 -69 -41z m239 -309 c0 -5 -4 -10 -10 -10 -5 0 -10 5 -10
10 0 6 5 10 10 10 6 0 10 -4 10 -10z m126 -397 c-10 -11 -25 18 -18 35 4 13 8
11 15 -6 6 -12 7 -25 3 -29z"/>
<path d="M3583 5265 c0 -8 4 -12 9 -9 5 3 6 10 3 15 -9 13 -12 11 -12 -6z"/>
<path d="M5878 5089 c-63 -9 -100 -25 -137 -60 -49 -46 -66 -141 -36 -198 31
-60 75 -83 266 -135 97 -27 137 -80 107 -143 -39 -82 -239 -83 -341 -3 -14 11
-27 20 -29 20 -3 0 -11 -18 -18 -40 -12 -37 -12 -42 6 -55 71 -54 239 -79 337
-51 105 30 154 98 145 198 -9 84 -60 122 -236 172 -108 30 -135 46 -152 87
-18 42 7 95 55 115 54 22 160 18 228 -10 31 -13 57 -23 57 -21 0 1 7 19 15 39
l15 37 -43 18 c-38 17 -71 24 -157 35 -14 2 -51 0 -82 -5z"/>
<path d="M4320 4755 l0 -335 50 0 50 0 0 335 0 335 -50 0 -50 0 0 -335z"/>
<path d="M4660 4756 l0 -336 45 0 45 0 0 105 0 106 107 -3 106 -3 70 -102 70
-103 53 0 54 0 -81 112 -80 112 34 18 c71 36 117 114 117 198 0 93 -46 162
-132 201 -48 21 -71 24 -230 27 l-178 4 0 -336z m360 233 c113 -49 119 -204
10 -259 -29 -15 -62 -19 -156 -21 l-119 -1 -3 151 -3 151 111 0 c91 0 120 -4
160 -21z"/>
<path d="M5400 4755 l0 -335 45 0 45 0 0 335 0 335 -45 0 -45 0 0 -335z"/>
</g>
</svg>
